#!OML:ASF F:\VICON\USERDATA\INSTALL\rory3\rory3.ASF
:FULLY-SPECIFIED
:DEGREES
2153
root -0.90674 18.1633 3.48042 -2.36608 7.70016 -4.2554
lowerback 3.97778 4.54893 2.09237
upperback -0.703912 6.0733 -4.16145
thorax -2.27902 2.98676 -5.80876
lowerneck -10.8475 -2.5922 -4.62547
upperneck 38.3298 -4.99642 7.13541
head 15.6452 -1.74835 3.12107
rclavicle 6.44311e-014 1.11319e-014
rhumerus 46.7632 -35.5008 -28.5928
rradius 20.0533
rwrist 11.7567
rhand -2.65107 2.9379
rfingers 7.12502
rthumb 23.0488 -25.7038
lclavicle 6.44311e-014 1.11319e-014
lhumerus -19.6067 27.3169 21.9352
lradius 11.154
lwrist -19.4347
lhand -20.1935 27.5591
lfingers 7.12502
lthumb 6.15304 57.4497
rfemur 3.96306 20.2199 14.8603
rtibia 16.4617
rfoot -21.1911 -23.2234
rtoes -2.35804
lfemur -6.21644 -11.4735 0.145503
ltibia 23.8372
lfoot -15.0106 15.0768
ltoes -12.9701
2154
root -0.910961 18.1623 3.47126 -2.34755 7.31078 -4.18728
lowerback 4.16036 4.47704 1.98396
upperback -0.786664 5.97087 -4.08521
thorax -2.49768 2.92962 -5.68767
lowerneck -10.5713 -2.6346 -4.72491
upperneck 38.1988 -5.07435 7.20569
head 15.5247 -1.79644 3.15104
rclavicle 2.08103e-014 -1.59028e-015
rhumerus 45.8458 -35.7412 -27.873
rradius 20.2705
rwrist 11.629
rhand -2.25567 3.27632
rfingers 7.12502
rthumb 23.4282 -25.3175
lclavicle 2.08103e-014 -1.59028e-015
lhumerus -19.2836 26.0977 22.5378
lradius 11.1575
lwrist -19.0824
lhand -20.1145 27.8344
lfingers 7.12502
lthumb 6.22929 57.7228
rfemur 3.57722 20.4094 14.7344
rtibia 16.8781
rfoot -21.2031 -23.0481
rtoes -2.50708
lfemur -6.05396 -11.2068 0.0744028
ltibia 23.7747
lfoot -15.0179 15.1997
ltoes -12.971
2155
root -0.91245 18.1626 3.45805 -2.31936 7.03569 -3.89183
lowerback 4.31315 4.33045 1.60219
upperback -0.766266 5.75469 -4.02483
thorax -2.62945 2.82362 -5.41553
lowerneck -10.5304 -2.63783 -4.79605
upperneck 38.1547 -5.05007 7.14287
head 15.4898 -1.81005 3.13735
rclavicle -8.51047e-015 1.27222e-014
rhumerus 44.844 -35.8319 -26.7918
rradius 20.5536
rwrist 11.1328
rhand -1.1532 4.0578
rfingers 7.12502
rthumb 24.4854 -24.3971
lclavicle -8.51047e-015 1.27222e-014
lhumerus -19.1298 24.9653 23.066
lradius 11.244
lwrist -18.7094
lhand -19.909 27.9143
lfingers 7.12502
lthumb 6.42771 57.7967
rfemur 3.24831 20.465 14.3336
rtibia 17.2477
rfoot -21.1652 -22.8158
rtoes -2.86243
lfemur -5.91722 -11.0127 -0.26424
ltibia 23.6974
lfoot -15.0048 15.2872
ltoes -12.7047
2156
root -0.912622 18.1638 3.4452 -2.25672 6.86522 -3.71357
lowerback 4.39541 4.13434 1.36023
upperback -0.718847 5.48097 -3.94685
thorax -2.68468 2.68959 -5.19068
lowerneck -10.6313 -2.65525 -4.84671
upperneck 38.1939 -5.05183 7.07287
head 15.5331 -1.82982 3.1159
rclavicle -3.40543e-014 2.22639e-014
rhumerus 44.2889 -36.2623 -26.345
rradius 20.6652
rwrist 11.1948
rhand -1.09815 5.07742
rfingers 7.12502
rthumb 24.5381 -23.3703
lclavicle -3.40543e-014 2.22639e-014
lhumerus -18.968 24.4207 23.4209
lradius 11.2626
lwrist -18.9631
lhand -19.6272 27.421
lfingers 7.12502
lthumb 6.69971 57.295
rfemur 2.91312 20.4819 14.0597
rtibia 17.5834
rfoot -21.2395 -22.6038
rtoes -2.88823
lfemur -5.8853 -10.9286 -0.459082
ltibia 23.6194
lfoot -14.9946 15.3701
ltoes -12.9999
2157
root -0.911594 18.1644 3.43729 -2.23488 6.6026 -3.67872
lowerback 4.45383 3.9579 1.26977
upperback -0.658314 5.24361 -3.8224
thorax -2.69747 2.57297 -5.00001
lowerneck -10.7123 -2.63406 -4.81625
upperneck 38.2594 -5.00011 6.95674
head 15.5755 -1.82116 3.06936
rclavicle 2.95319e-014 -1.74931e-014
rhumerus 44.0432 -36.8595 -26.3465
rradius 20.6404
rwrist 11.6079
rhand -1.9688 5.51816
rfingers 7.12502
rthumb 23.7033 -23.0402
lclavicle 2.95319e-014 -1.74931e-014
lhumerus -18.8487 25.0944 23.4738
lradius 11.1315
lwrist -20.366
lhand -19.4156 27.1039
lfingers 7.12502
lthumb 6.90394 56.9713
rfemur 2.62563 20.5464 13.9606
rtibia 17.8864
rfoot -21.173 -22.4395
rtoes -3.06141
lfemur -5.77613 -10.7213 -0.503088
ltibia 23.5407
lfoot -14.9256 15.4548
ltoes -13.5395
2158
root -0.910478 18.1643 3.42758 -2.22201 6.26828 -3.6363
lowerback 4.58976 3.77869 1.1153
upperback -0.595208 4.99906 -3.66473
thorax -2.75831 2.45282 -4.74439
lowerneck -10.7799 -2.55901 -4.79632
upperneck 38.3332 -4.85425 6.81641
head 15.6096 -1.77763 3.02972
rclavicle 5.9039e-014 -3.33958e-014
rhumerus 43.4234 -37.0741 -25.7196
rradius 20.6896
rwrist 11.47
rhand -2.15011 5.29079
rfingers 7.12502
rthumb 23.5294 -23.29
lclavicle 5.9039e-014 -3.33958e-014
lhumerus -18.7183 24.681 23.8166
lradius 11.1114
lwrist -20.4728
lhand -19.4902 27.2813
lfingers 7.12502
lthumb 6.83194 57.151
rfemur 2.36187 20.6419 13.841
rtibia 18.115
rfoot -21.0656 -22.2684
rtoes -3.15624
lfemur -5.64309 -10.4477 -0.561065
ltibia 23.4839
lfoot -14.8983 15.519
ltoes -13.4899
2159
root -0.908453 18.1661 3.41554 -2.15727 5.97777 -3.52335
lowerback 4.70854 3.6213 0.915194
upperback -0.50711 4.78063 -3.54557
thorax -2.77934 2.34747 -4.50114
lowerneck -10.7965 -2.52455 -4.82089
upperneck 38.3291 -4.7755 6.7307
head 15.6016 -1.76292 3.00807
rclavicle 8.49804e-015 1.90833e-014
rhumerus 42.6035 -37.3667 -24.8981
rradius 20.7946
rwrist 11.2489
rhand -1.97177 4.81173
rfingers 7.12502
rthumb 23.7005 -23.7471
lclavicle 8.49804e-015 1.90833e-014
lhumerus -18.4393 23.116 24.5378
lradius 11.2834
lwrist -19.4551
lhand -19.7663 27.4515
lfingers 7.12502
lthumb 6.56538 57.3297
rfemur 2.06589 20.7664 13.626
rtibia 18.3031
rfoot -20.9658 -22.1311
rtoes -3.21054
lfemur -5.56826 -10.3025 -0.710941
ltibia 23.4318
lfoot -14.9618 15.6634
ltoes -13.1987
2160
root -0.906374 18.1688 3.40404 -2.05813 5.74572 -3.38238
lowerback 4.78429 3.46861 0.706803
upperback -0.429984 4.5671 -3.46528
thorax -2.78234 2.24476 -4.29048
lowerneck -10.6742 -2.49039 -4.78184
upperneck 38.2841 -4.72661 6.67398
head 15.5412 -1.75002 2.98143
rclavicle -1.08089e-014 -7.95139e-015
rhumerus 41.5094 -37.6002 -23.8848
rradius 20.9164
rwrist 10.957
rhand -2.3023 4.66188
rfingers 7.12502
rthumb 23.3834 -23.9376
lclavicle -1.08089e-014 -7.95139e-015
lhumerus -18.0817 21.0398 25.3321
lradius 11.5348
lwrist -18.0178
lhand -19.7787 27.7138
lfingers 7.12502
lthumb 6.55345 57.5924
rfemur 1.7756 20.9009 13.3839
rtibia 18.4637
rfoot -20.9445 -22.0371
rtoes -3.38839
lfemur -5.55741 -10.1934 -0.884965
ltibia 23.3839
lfoot -15.0302 15.8415
ltoes -12.9749
2161
root -0.904254 18.1709 3.3932 -1.94636 5.46914 -3.35364
lowerback 4.85617 3.28906 0.640393
upperback -0.394781 4.32548 -3.37349
thorax -2.81681 2.12509 -4.14667
lowerneck -10.4808 -2.41224 -4.80831
upperneck 38.294 -4.6251 6.68899
head 15.4912 -1.71638 3.00879
rclavicle 2.23633e-016 -1.11319e-014
rhumerus 40.3275 -37.6167 -22.7969
rradius 21.0302
rwrist 10.4718
rhand -2.59667 4.52756
rfingers 7.12502
rthumb 23.101 -24.1076
lclavicle 2.23633e-016 -1.11319e-014
lhumerus -17.795 20.5486 25.6185
lradius 11.4999
lwrist -18.0771
lhand -19.7892 27.5401
lfingers 7.12502
lthumb 6.54334 57.419
rfemur 1.46044 21.0121 13.2461
rtibia 18.5843
rfoot -20.8747 -21.91
rtoes -3.58575
lfemur -5.5614 -10.0896 -0.930701
ltibia 23.3491
lfoot -15.0737 16.056
ltoes -12.9885
2162
root -0.901285 18.1742 3.3793 -1.79992 5.15684 -3.43353
lowerback 4.93638 3.09309 0.659897
upperback -0.3466 4.06847 -3.23932
thorax -2.83938 1.99709 -4.00529
lowerneck -10.3623 -2.33448 -4.91272
upperneck 38.3062 -4.51431 6.7347
head 15.4629 -1.68529 3.06482
rclavicle -4.80313e-014 2.22639e-014
rhumerus 39.5332 -37.8796 -22.146
rradius 20.9828
rwrist 10.4478
rhand -2.82249 4.55613
rfingers 7.12502
rthumb 22.8843 -24.106
lclavicle -4.80313e-014 2.22639e-014
lhumerus -17.5263 21.2213 25.6507
lradius 11.3222
lwrist -19.2138
lhand -19.8742 27.398
lfingers 7.12502
lthumb 6.46127 57.2794
rfemur 1.07488 21.1749 13.2114
rtibia 18.6859
rfoot -20.7085 -21.8416
rtoes -3.54433
lfemur -5.6136 -10.0058 -0.846288
ltibia 23.3346
lfoot -15.1243 16.2535
ltoes -12.9484
2163
root -0.899482 18.1777 3.36255 -1.63251 4.76632 -3.514
lowerback 5.05509 2.92761 0.612066
upperback -0.288935 3.84912 -3.06017
thorax -2.87751 1.88894 -3.78351
lowerneck -10.2926 -2.26073 -5.04784
upperneck 38.3526 -4.39833 6.77158
head 15.4636 -1.65651 3.12476
rclavicle 1.59028e-015 4.29375e-014
rhumerus 38.6754 -38.0964 -21.3588
rradius 20.9453
rwrist 10.3486
rhand -2.99625 4.35955
rfingers 7.12502
rthumb 22.7176 -24.3231
lclavicle 1.59028e-015 4.29375e-014
lhumerus -17.265 20.8717 25.9605
lradius 11.3561
lwrist -19.1834
lhand -19.8769 27.948
lfingers 7.12502
lthumb 6.45868 57.8295
rfemur 0.648798 21.4531 13.1695
rtibia 18.776
rfoot -20.5679 -21.7838
rtoes -3.52649
lfemur -5.68884 -9.80972 -0.75448
ltibia 23.3417
lfoot -15.1764 16.4628
ltoes -12.8505
2164
root -0.89777 18.18 3.3445 -1.45009 4.35993 -3.59254
lowerback 5.16277 2.76449 0.547915
upperback -0.202728 3.63259 -2.88552
thorax -2.87872 1.78328 -3.55498
lowerneck -10.3872 -2.24821 -5.0009
upperneck 38.5384 -4.32001 6.52757
head 15.5645 -1.65156 3.02869
rclavicle -1.05853e-014 4.77083e-015
rhumerus 37.4567 -38.0423 -20.1249
rradius 21.0423
rwrist 9.68543
rhand -2.82029 3.85406
rfingers 7.12502
rthumb 22.8864 -24.8078
lclavicle -1.05853e-014 4.77083e-015
lhumerus -17.0118 21.9187 25.9242
lradius 11.2162
lwrist -20.3982
lhand -19.6229 27.9836
lfingers 7.12502
lthumb 6.70387 57.8575
rfemur 0.191059 21.731 13.1116
rtibia 18.8634
rfoot -20.3578 -21.7639
rtoes -3.83068
lfemur -5.76879 -9.62946 -0.664144
ltibia 23.3382
lfoot -15.2707 16.6991
ltoes -12.7406
2165
root -0.892493 18.1845 3.32751 -1.2045 4.02758 -3.60368
lowerback 5.21436 2.56698 0.556801
upperback -0.141163 3.37169 -2.82883
thorax -2.86353 1.65396 -3.48371
lowerneck -10.1888 -2.27567 -4.89271
upperneck 38.5203 -4.32965 6.30583
head 15.4981 -1.67804 2.9086
rclavicle 7.10655e-014 -7.95139e-015
rhumerus 36.0002 -37.8037 -18.7747
rradius 21.1224
rwrist 8.76204
rhand -2.97006 3.50777
rfingers 7.12502
rthumb 22.7427 -25.1718
lclavicle 7.10655e-014 -7.95139e-015
lhumerus -16.6677 22.7305 25.8166
lradius 11.0711
lwrist -21.3429
lhand -19.4723 28.0987
lfingers 7.12502
lthumb 6.84921 57.9679
rfemur -0.305622 21.882 12.9377
rtibia 18.9489
rfoot -20.192 -21.6651
rtoes -4.10194
lfemur -5.91227 -9.55009 -0.665588
ltibia 23.3142
lfoot -15.3491 17.0231
ltoes -12.8155
2166
root -0.8855 18.1902 3.31232 -0.941677 3.60645 -3.47439
lowerback 5.26594 2.40273 0.435942
upperback -0.133883 3.14497 -2.80837
thorax -2.90677 1.54207 -3.38122
lowerneck -9.42285 -2.30791 -5.00376
upperneck 38.1316 -4.40113 6.37329
head 15.1309 -1.73511 2.93152
rclavicle 1.6847e-014 -1.11319e-014
rhumerus 34.078 -37.0578 -16.9139
rradius 21.3452
rwrist 7.45801
rhand -3.63869 3.46982
rfingers 7.12502
rthumb 22.1009 -25.2871
lclavicle 1.6847e-014 -1.11319e-014
lhumerus -16.3625 22.0794 25.9847
lradius 11.1327
lwrist -20.9832
lhand -19.5474 28.5137
lfingers 7.12502
lthumb 6.77677 58.3853
rfemur -0.835162 22.0461 12.5791
rtibia 19.0353
rfoot -20.0192 -21.4864
rtoes -4.16284
lfemur -5.99277 -9.51481 -0.851238
ltibia 23.2724
lfoot -15.56 17.3991
ltoes -12.5526
2167
root -0.88098 18.1956 3.29581 -0.677128 3.05817 -3.41823
lowerback 5.32523 2.28334 0.293082
upperback -0.115885 2.97882 -2.71324
thorax -2.94368 1.46133 -3.19294
lowerneck -8.99788 -2.31498 -5.02742
upperneck 38.0145 -4.42016 6.34
head 14.9737 -1.7639 2.91389
rclavicle 8.84592e-015 -2.70347e-014
rhumerus 32.2383 -36.4451 -15.1557
rradius 21.5726
rwrist 6.79656
rhand -3.63938 3.63894
rfingers 7.12502
rthumb 22.1002 -25.1181
lclavicle 8.84592e-015 -2.70347e-014
lhumerus -16.102 22.0958 26.0244
lradius 11.1174
lwrist -21.3247
lhand -19.3715 28.2671
lfingers 7.12502
lthumb 6.94652 58.1331
rfemur -1.40949 22.3654 12.2968
rtibia 19.1118
rfoot -19.8458 -21.3305
rtoes -4.02213
lfemur -6.02941 -9.36851 -0.943186
ltibia 23.208
lfoot -15.7878 17.742
ltoes -12.0769
